<svg width="437" height="375" viewBox="0 0 437 375" fill="none" xmlns="http://www.w3.org/2000/svg">
<path fill-rule="evenodd" clip-rule="evenodd" d="M35.6311 288.298C35.1111 288.986 33.2071 293.148 31.3991 297.548C29.5911 301.948 27.0842 307.798 25.8272 310.548C24.5702 313.298 22.4252 318.023 21.0602 321.048C19.6952 324.073 17.3981 329.068 15.9541 332.148C14.5111 335.227 13.3301 338.49 13.3301 339.398C13.3301 340.305 12.8801 341.048 12.3301 341.048C11.7801 341.048 11.3301 341.486 11.3301 342.021C11.3301 342.556 10.1712 345.593 8.75416 348.771C6.30016 354.275 4.91614 357.461 2.55314 363.048C1.97114 364.423 1.03115 367.01 0.46415 368.798C-0.56585 372.048 -0.565851 372.048 7.88215 372.048C14.7251 372.048 16.3301 371.763 16.3301 370.548C16.3301 369.723 16.7801 369.048 17.3301 369.048C17.8801 369.048 18.3301 368.232 18.3301 367.235C18.3301 366.238 19.4551 363.09 20.8301 360.24C22.2051 357.39 23.3301 354.606 23.3301 354.053C23.3301 353.412 30.9292 353.048 44.3312 353.048C65.3332 353.048 65.3332 353.048 68.2102 359.298C69.7932 362.736 71.7021 367.01 72.4531 368.798C73.8181 372.048 73.8181 372.048 82.5741 372.048C87.3901 372.048 91.3301 371.625 91.3301 371.108C91.3301 370.591 89.9801 367.566 88.3301 364.385C86.6801 361.205 85.3301 358.304 85.3301 357.938C85.3301 357.236 75.9871 336.78 74.3111 333.812C73.7711 332.857 73.3301 331.394 73.3301 330.562C73.3301 329.729 72.8801 329.048 72.3301 329.048C71.7801 329.048 71.3301 328.409 71.3301 327.629C71.3301 326.849 70.6952 324.936 69.9182 323.379C68.4792 320.492 65.2991 313.51 61.3411 304.548C60.1271 301.798 57.7991 296.736 56.1691 293.298C53.2051 287.048 53.2051 287.048 44.8901 287.048C39.4081 287.048 36.2531 287.474 35.6311 288.298ZM182.53 293.248C181.832 293.946 181.33 297.292 181.33 301.248C181.33 308.048 181.33 308.048 176.33 308.048C171.33 308.048 171.33 308.048 171.33 314.548C171.33 321.048 171.33 321.048 176.33 321.048C181.33 321.048 181.33 321.048 181.33 338.489C181.33 349.038 181.725 356.174 182.33 356.548C182.88 356.888 183.33 358.232 183.33 359.536C183.33 360.839 184.005 362.58 184.83 363.405C185.655 364.23 186.33 365.194 186.33 365.548C186.33 366.586 189.093 369.048 190.259 369.048C190.848 369.048 191.33 369.416 191.33 369.865C191.33 370.87 201.158 374.048 204.264 374.048C207.647 374.048 217.542 370.979 219.063 369.457C220.043 368.478 220.122 367.586 219.363 366.087C218.795 364.965 217.88 363.154 217.33 362.062C216.78 360.969 216.33 359.394 216.33 358.562C216.33 357.729 215.655 357.048 214.83 357.048C214.005 357.048 213.33 357.498 213.33 358.048C213.33 358.599 210.735 359.048 207.546 359.048C202.221 359.048 201.625 358.817 200.046 356.144C198.616 353.724 198.33 350.555 198.33 337.144C198.33 321.048 198.33 321.048 206.13 321.048C210.863 321.048 214.402 320.576 215.13 319.848C215.79 319.188 216.33 316.477 216.33 313.823C216.33 309.672 216 308.873 213.967 308.1C212.667 307.606 209.769 307.448 207.527 307.748C205.285 308.049 202.299 308.006 200.89 307.653C198.429 307.035 198.33 306.722 198.33 299.529C198.33 292.048 198.33 292.048 191.03 292.048C186.686 292.048 183.244 292.534 182.53 293.248ZM47.0331 309.814C47.6811 311.318 48.9831 314.573 49.9281 317.048C50.8731 319.523 51.9592 321.998 52.3402 322.548C52.7222 323.098 53.8642 325.911 54.8792 328.798C55.8952 331.685 57.0861 334.048 57.5281 334.048C57.9691 334.048 58.3301 335.173 58.3301 336.548C58.3301 339.048 58.3301 339.048 44.8301 339.048C32.1331 339.048 31.3301 338.932 31.3301 337.107C31.3301 336.039 31.7801 334.888 32.3301 334.548C32.8801 334.208 33.3301 333.199 33.3301 332.305C33.3301 331.411 34.1911 328.85 35.2441 326.614C38.3111 320.1 40.9861 313.826 42.3731 309.893C43.0831 307.883 44.1561 306.428 44.7591 306.659C45.3631 306.891 46.3861 308.31 47.0331 309.814ZM98.5321 332.586C98.7131 348.117 99.2221 358.402 99.8301 358.836C100.38 359.227 101.568 360.898 102.469 362.548C104.8 366.814 112.436 371.585 119.248 373.031C126.504 374.57 133.106 373.346 140.887 369.016C146.33 365.988 146.33 365.988 146.33 369.018C146.33 372.048 146.33 372.048 153.83 372.048C161.33 372.048 161.33 372.048 161.33 339.506C161.33 306.964 161.33 306.964 153.58 307.256C145.83 307.548 145.83 307.548 145.216 326.548C144.878 336.998 144.265 346.774 143.854 348.274C142.962 351.524 139.229 355.453 135.05 357.538C133.385 358.368 130.262 359.048 128.111 359.048C121.701 359.048 117.643 356.127 114.886 349.528C113.66 346.593 113.33 341.698 113.33 326.426C113.33 307.048 113.33 307.048 105.782 307.048C98.2341 307.048 98.2341 307.048 98.5321 332.586ZM245.83 308.277C240.657 310.029 236.953 312.308 233.277 316.001C229.072 320.227 226.956 323.833 224.867 330.333C223.082 335.891 222.948 340.923 224.436 346.548C225.018 348.748 225.734 351.786 226.026 353.298C226.318 354.81 226.956 356.048 227.443 356.048C227.931 356.048 228.33 356.613 228.33 357.303C228.33 359.283 239.156 369.048 241.352 369.048C242.44 369.048 243.33 369.467 243.33 369.98C243.33 370.492 246.81 371.686 251.063 372.632C258.28 374.238 259.359 374.244 267.239 372.725C271.882 371.83 275.94 370.697 276.256 370.207C276.572 369.718 277.73 369.02 278.83 368.657C281.498 367.775 286.33 363.448 286.33 361.941C286.33 360.754 278.807 353.048 277.648 353.048C277.32 353.048 274.857 354.398 272.176 356.048C268 358.617 266.313 359.048 260.429 359.048C256.65 359.048 252.495 358.478 251.194 357.781C246.347 355.183 243.33 352.779 243.33 351.516C243.33 350.8 242.913 350.065 242.404 349.881C241.895 349.698 241.171 348.31 240.796 346.798C240.113 344.048 240.113 344.048 265.722 344.048C291.33 344.048 291.33 344.048 291.33 339.847C291.33 335.226 288.343 324.048 287.108 324.048C286.68 324.048 286.33 323.334 286.33 322.461C286.33 320.028 275.565 310.045 272.221 309.376C270.608 309.054 269.046 308.398 268.75 307.919C268.015 306.729 249.549 307.017 245.83 308.277ZM293.898 307.939C293.567 308.473 293.943 310.404 294.732 312.229C295.522 314.055 297.133 317.742 298.313 320.423C299.492 323.104 301.352 327.568 302.446 330.343C303.54 333.118 305.594 337.899 307.01 340.968C308.427 344.037 309.932 347.448 310.356 348.548C310.779 349.648 311.919 352.342 312.888 354.536C313.857 356.729 315.849 361.454 317.315 365.036C319.98 371.548 319.98 371.548 326.884 371.849C330.681 372.014 334.698 371.917 335.809 371.633C337.084 371.307 338.514 369.35 339.684 366.332C340.704 363.701 342.616 359.173 343.934 356.271C345.252 353.368 346.33 350.752 346.33 350.458C346.33 350.163 347.411 347.588 348.731 344.735C353.871 333.633 356.33 327.961 356.33 327.208C356.33 326.777 357.171 324.652 358.198 322.486C362.001 314.472 363.224 311.499 363.523 309.548C363.806 307.702 363.266 307.548 356.517 307.548C347.729 307.548 349.364 305.466 338.851 330.048C329.785 351.247 329.113 352.617 328.559 351.048C328.268 350.223 327.748 349.323 327.402 349.048C326.831 348.592 325.919 346.541 321.627 336.048C320.839 334.123 319.775 331.536 319.262 330.298C318.75 329.06 317.934 327.036 317.45 325.798C314.854 319.162 312.824 314.492 312.345 314.048C312.047 313.773 311.35 312.198 310.796 310.548C309.806 307.603 309.648 307.543 302.143 307.257C297.933 307.097 294.228 307.404 293.898 307.939ZM388.83 308.288C387.18 308.853 384.83 309.774 383.608 310.335C379.314 312.307 372.277 319.87 369.332 325.679C366.749 330.772 366.354 332.64 366.343 339.812C366.336 344.357 366.714 348.857 367.183 349.812C367.652 350.767 368.85 353.24 369.846 355.309C374.379 364.724 382.732 370.665 394.928 373.145C399.648 374.105 402.332 374.123 406.811 373.223C409.993 372.584 413.956 371.383 415.617 370.555C417.278 369.726 419.131 369.038 419.734 369.025C421.012 368.998 430.315 359.483 431.935 356.544C432.543 355.442 433.868 351.324 434.881 347.394C436.68 340.411 436.677 340.062 434.792 332.148C433.73 327.693 432.517 324.048 432.096 324.048C431.675 324.048 431.33 323.391 431.33 322.588C431.33 321.786 429.589 319.353 427.461 317.182C423.461 313.101 419.37 310.544 413.33 308.35C409.2 306.849 393.15 306.809 388.83 308.288ZM265.652 321.507C270.974 324.025 274.33 328.064 274.33 331.952C274.33 333.998 273.924 334.048 257.222 334.048C240.113 334.048 240.113 334.048 240.773 331.417C241.137 329.971 242.198 327.747 243.132 326.476C245.562 323.169 253.261 319.101 257.142 319.072C258.963 319.059 262.793 320.155 265.652 321.507ZM411.668 323.734C414.171 325.337 416.215 327.794 417.541 330.793C419.128 334.381 419.467 336.75 419.081 341.56C418.574 347.873 416.522 352.315 412.849 355.048C408.692 358.142 405.952 359.048 400.756 359.048C393.707 359.048 387.62 355.472 384.83 349.692C382.149 344.138 382.163 334.833 384.858 330.048C387.641 325.109 391.259 322.143 395.33 321.466C397.255 321.146 399.28 320.756 399.83 320.6C402.246 319.913 408.139 321.473 411.668 323.734Z" fill="black"/>
<path fill-rule="evenodd" clip-rule="evenodd" d="M202.83 1.37127C202.28 2.05627 199.805 6.65227 197.33 11.5833C194.855 16.5143 192.605 20.7733 192.33 21.0483C192.055 21.3233 189.374 26.4983 186.372 32.5483C183.37 38.5983 179.954 45.1233 178.782 47.0483C177.609 48.9733 176.36 51.7223 176.006 53.1573C175.376 55.7103 175.495 55.7803 181.493 56.4073C192.55 57.5633 198.855 57.2033 200.927 55.2983C201.974 54.3353 205.508 48.1483 208.782 41.5483C212.055 34.9483 214.98 29.3233 215.282 29.0483C215.583 28.7733 216.329 27.6483 216.939 26.5483C217.707 25.1623 219.084 24.5483 221.421 24.5483C224.731 24.5483 224.909 24.7753 230.812 36.5483C234.122 43.1483 237.067 48.7733 237.358 49.0483C237.648 49.3233 238.76 51.5733 239.83 54.0483C240.9 56.5233 242.017 58.7733 242.313 59.0483C242.608 59.3233 245.523 64.9483 248.791 71.5483C252.058 78.1483 255.09 83.6983 255.53 83.8813C255.97 84.0653 256.33 84.8613 256.33 85.6513C256.33 86.4413 257.455 88.8703 258.83 91.0483C260.205 93.2263 261.33 95.4763 261.33 96.0483C261.33 96.6203 262.354 98.7663 263.605 100.818C264.857 102.869 267.219 107.248 268.855 110.548C270.491 113.848 272.067 116.773 272.358 117.048C272.648 117.323 273.746 119.573 274.797 122.048C275.849 124.523 277.129 127.111 277.642 127.798C278.873 129.447 304.33 129.594 304.33 127.952C304.33 126.994 303.251 124.647 300.239 119.048C299.795 118.223 297.946 114.623 296.131 111.048C294.315 107.473 292.493 104.398 292.08 104.215C291.667 104.031 291.33 103.28 291.33 102.546C291.33 101.268 288.404 95.0943 287.302 94.0493C287.012 93.7733 285.9 91.5233 284.83 89.0483C283.76 86.5733 282.648 84.3233 282.358 84.0473C281.256 83.0023 278.33 76.8283 278.33 75.5503C278.33 74.8163 277.987 74.0653 277.568 73.8813C277.149 73.6983 274.131 68.1483 270.86 61.5483C267.59 54.9483 264.67 49.3233 264.372 49.0483C264.074 48.7733 261.092 43.1483 257.746 36.5483C249.014 19.3263 240.237 2.75127 239.08 1.29827C237.667 -0.477733 204.259 -0.410735 202.83 1.37127ZM0.330147 70.1473C0.330147 72.6923 3.74716 78.1123 7.64616 81.7543C11.3252 85.1893 14.2301 87.0873 20.5011 90.1503C24.9271 92.3123 42.3481 93.0483 89.1211 93.0483C139.465 93.0483 139.465 93.0483 138.791 95.1713C138.274 96.7993 135.636 101.792 133.981 104.275C133.898 104.4 111.105 104.737 83.3301 105.025C32.8301 105.548 32.8301 105.548 33.1821 108.048C33.3761 109.423 34.7991 112.271 36.3461 114.378C40.6611 120.256 45.7941 123.671 55.8301 127.344C57.6301 128.003 71.2942 128.664 89.9862 128.995C121.141 129.548 121.141 129.548 118.42 135.048C115.699 140.548 115.699 140.548 90.4101 140.815C65.1221 141.083 65.1221 141.083 65.8041 143.815C66.5771 146.912 70.5022 152.468 74.2492 155.769C75.6362 156.991 79.5071 159.337 82.8511 160.984C88.3791 163.705 90.1812 164.04 102.667 164.667C110.221 165.046 116.612 165.695 116.868 166.11C117.23 166.695 104.898 191.82 94.2532 212.185C93.5742 213.485 92.5602 215.448 92.0002 216.548C91.4402 217.648 88.3511 223.638 85.1351 229.86C81.9201 236.082 79.5491 241.594 79.8681 242.11C80.2131 242.668 96.1662 243.048 119.236 243.048C158.024 243.048 158.024 243.048 161.347 236.798C163.174 233.361 167.388 225.148 170.712 218.548C174.036 211.948 177.11 206.398 177.543 206.215C177.976 206.031 178.33 205.357 178.33 204.716C178.33 203.602 186.293 187.085 187.33 186.048C187.605 185.773 188.607 183.867 189.557 181.811C191.266 178.115 191.261 178.069 189.057 177.521C187.832 177.216 181.88 177.097 175.83 177.257C165.518 177.53 164.768 177.689 163.843 179.798C163.3 181.036 162.512 182.048 162.093 182.048C161.673 182.048 161.33 182.697 161.33 183.491C161.33 184.284 160.463 186.422 159.403 188.241C158.344 190.06 154.351 197.623 150.53 205.048C143.584 218.548 143.584 218.548 130.863 218.829C123.785 218.985 118.295 218.717 118.486 218.226C119.867 214.676 131.958 191.479 132.565 191.215C132.986 191.031 133.33 190.235 133.33 189.445C133.33 188.655 134.455 186.226 135.83 184.048C137.205 181.87 138.33 179.494 138.33 178.768C138.33 178.042 138.734 177.02 139.228 176.498C139.722 175.976 143.884 168.123 148.478 159.048C153.072 149.973 157.055 142.323 157.33 142.047C158.477 140.899 161.33 134.778 161.33 133.467C161.33 132.687 161.681 132.048 162.111 132.048C162.54 132.048 163.409 130.81 164.041 129.298C164.673 127.786 165.964 125.198 166.911 123.548C167.858 121.898 168.935 119.873 169.305 119.048C169.675 118.223 170.732 116.085 171.654 114.298C172.576 112.511 174.084 109.585 175.006 107.798C175.928 106.011 177.123 103.648 177.662 102.548C178.2 101.448 178.997 99.8733 179.432 99.0483C179.867 98.2233 182.83 92.3733 186.017 86.0483C189.203 79.7233 192.079 74.3233 192.408 74.0483C192.736 73.7733 193.261 72.5363 193.574 71.2983C194.143 69.0483 194.143 69.0483 97.2362 69.0483C27.4862 69.0483 0.330147 69.3563 0.330147 70.1473ZM214.584 80.8683C211.268 87.2923 206.142 97.2733 203.192 103.048C200.243 108.823 197.493 113.698 197.08 113.881C196.667 114.065 196.33 114.816 196.33 115.55C196.33 116.798 193.441 122.934 192.33 124.047C191.419 124.959 183.33 141.908 183.33 142.904C183.33 143.442 182.993 144.031 182.58 144.215C182.167 144.398 180.943 146.348 179.858 148.548C178.774 150.748 176.902 154.162 175.699 156.135C174.496 158.107 173.358 160.807 173.171 162.135C172.83 164.548 172.83 164.548 256.965 164.804C341.1 165.059 341.1 165.059 341.701 167.304C342.032 168.538 342.309 171.685 342.316 174.298C342.327 178.168 342.657 179.048 344.098 179.048C345.07 179.048 347.521 177.923 349.545 176.548C351.568 175.173 353.478 174.048 353.788 174.048C354.098 174.048 357.942 171.798 362.33 169.048C366.718 166.298 370.502 164.048 370.74 164.048C371.108 164.048 387.233 154.29 388.15 153.512C388.873 152.9 379.817 147.271 365.83 139.639C364.73 139.039 363.605 138.278 363.33 137.948C362.79 137.299 352.251 131.336 348.588 129.607C347.355 129.024 346.342 128.21 346.338 127.798C346.334 127.386 345.451 127.048 344.376 127.048C342.659 127.048 342.385 127.868 342.126 133.798C341.83 140.548 341.83 140.548 276.58 140.805C240.692 140.947 211.33 140.828 211.33 140.542C211.33 140.067 212.282 138.083 214.445 134.048C214.887 133.223 216.475 130.124 217.974 127.161C220.699 121.773 220.699 121.773 223.01 124.661C224.28 126.249 225.322 127.886 225.325 128.298C225.328 128.71 231.18 129.048 238.33 129.048C246.026 129.048 251.33 128.654 251.33 128.082C251.33 127.008 248.131 119.834 247.302 119.048C247.012 118.773 245.9 116.523 244.83 114.048C243.76 111.573 242.635 109.323 242.33 109.048C242.025 108.773 240.9 106.523 239.83 104.048C238.76 101.573 237.648 99.3233 237.358 99.0483C237.067 98.7733 234.989 94.9483 232.739 90.5483C225.377 76.1533 222.876 71.5663 221.736 70.3683C220.891 69.4803 219.116 72.0873 214.584 80.8683ZM252.598 177.844C251.701 178.427 254.04 183.921 261.222 198.096C274.946 225.185 276.707 228.502 277.571 228.881C277.988 229.065 278.33 229.816 278.33 230.55C278.33 231.878 281.308 238.09 282.403 239.047C282.718 239.323 283.266 240.336 283.622 241.298C284.221 242.924 287.031 243.048 323.132 243.048C344.508 243.048 362.268 242.777 362.599 242.446C363.14 241.905 360.561 235.279 359.33 234.048C359.055 233.773 355.556 227.023 351.554 219.048C347.553 211.073 343.547 203.198 342.653 201.548C341.759 199.898 340.623 197.73 340.128 196.731C334.427 185.21 330.749 178.418 329.883 177.813C328.273 176.69 305.541 176.897 304.834 178.042C304.313 178.884 315.792 203.016 321.247 212.548C325.149 219.366 325.627 219.048 311.468 219.048C298.668 219.048 298.668 219.048 297.377 216.298C295.828 212.998 294.382 210.162 290.928 203.649C289.499 200.955 288.33 198.348 288.33 197.857C288.33 197.366 287.861 196.42 287.288 195.756C286.715 195.092 284.286 190.723 281.89 186.048C277.533 177.548 277.533 177.548 265.682 177.297C259.163 177.158 253.276 177.405 252.598 177.844Z" fill="#FF0000"/>
<path d="M197.33 11.5833C199.805 6.65227 202.28 2.05627 202.83 1.37127C204.259 -0.410735 237.667 -0.477733 239.08 1.29827C240.237 2.75127 249.014 19.3263 257.746 36.5483C261.092 43.1483 264.074 48.7733 264.372 49.0483C264.67 49.3233 267.59 54.9483 270.86 61.5483C274.131 68.1483 277.149 73.6983 277.568 73.8813C277.987 74.0653 278.33 74.8163 278.33 75.5503C278.33 76.8283 281.256 83.0023 282.358 84.0473C282.648 84.3233 283.76 86.5733 284.83 89.0483C285.9 91.5233 287.012 93.7733 287.302 94.0493C288.404 95.0943 291.33 101.268 291.33 102.546C291.33 103.28 291.667 104.031 292.08 104.215C292.493 104.398 294.315 107.473 296.131 111.048C297.946 114.623 299.795 118.223 300.239 119.048C303.251 124.647 304.33 126.994 304.33 127.952C304.33 129.594 278.873 129.447 277.642 127.798C277.129 127.111 275.849 124.523 274.797 122.048C273.746 119.573 272.648 117.323 272.358 117.048C272.067 116.773 270.491 113.848 268.855 110.548C267.219 107.248 264.857 102.869 263.605 100.818C262.354 98.7663 261.33 96.6203 261.33 96.0483C261.33 95.4763 260.205 93.2263 258.83 91.0483C257.455 88.8703 256.33 86.4413 256.33 85.6513C256.33 84.8613 255.97 84.0653 255.53 83.8813C255.09 83.6983 252.058 78.1483 248.791 71.5483C245.523 64.9483 242.608 59.3233 242.313 59.0483C242.017 58.7733 240.9 56.5233 239.83 54.0483C238.76 51.5733 237.648 49.3233 237.358 49.0483C237.067 48.7733 234.122 43.1483 230.812 36.5483C224.909 24.7753 224.731 24.5483 221.421 24.5483C219.084 24.5483 217.707 25.1623 216.939 26.5483C216.329 27.6483 215.583 28.7733 215.282 29.0483C214.98 29.3233 212.055 34.9483 208.782 41.5483C205.508 48.1483 201.974 54.3353 200.927 55.2983C198.855 57.2033 192.55 57.5633 181.493 56.4073C175.495 55.7803 175.376 55.7103 176.006 53.1573C176.36 51.7223 177.609 48.9733 178.782 47.0483C179.954 45.1233 183.37 38.5983 186.372 32.5483C189.374 26.4983 192.055 21.3233 192.33 21.0483C192.605 20.7733 194.855 16.5143 197.33 11.5833Z" fill="#FF0000"/>
<path d="M7.64616 81.7543C3.74716 78.1123 0.330147 72.6923 0.330147 70.1473C0.330147 69.3563 27.4862 69.0483 97.2362 69.0483C194.143 69.0483 194.143 69.0483 193.574 71.2983C193.261 72.5363 192.736 73.7733 192.408 74.0483C192.079 74.3233 189.203 79.7233 186.017 86.0483C182.83 92.3733 179.867 98.2233 179.432 99.0483C178.997 99.8733 178.2 101.448 177.662 102.548C177.123 103.648 175.928 106.011 175.006 107.798C174.084 109.585 172.576 112.511 171.654 114.298C170.732 116.085 169.675 118.223 169.305 119.048C168.935 119.873 167.858 121.898 166.911 123.548C165.964 125.198 164.673 127.786 164.041 129.298C163.409 130.81 162.54 132.048 162.111 132.048C161.681 132.048 161.33 132.687 161.33 133.467C161.33 134.778 158.477 140.899 157.33 142.047C157.055 142.323 153.072 149.973 148.478 159.048C143.884 168.123 139.722 175.976 139.228 176.498C138.734 177.02 138.33 178.042 138.33 178.768C138.33 179.494 137.205 181.87 135.83 184.048C134.455 186.226 133.33 188.655 133.33 189.445C133.33 190.235 132.986 191.031 132.565 191.215C131.958 191.479 119.867 214.676 118.486 218.226C118.295 218.717 123.785 218.985 130.863 218.829C143.584 218.548 143.584 218.548 150.53 205.048C154.351 197.623 158.344 190.06 159.403 188.241C160.463 186.422 161.33 184.284 161.33 183.491C161.33 182.697 161.673 182.048 162.093 182.048C162.512 182.048 163.3 181.036 163.843 179.798C164.768 177.689 165.518 177.53 175.83 177.257C181.88 177.097 187.832 177.216 189.057 177.521C191.261 178.069 191.266 178.115 189.557 181.811C188.607 183.867 187.605 185.773 187.33 186.048C186.293 187.085 178.33 203.602 178.33 204.716C178.33 205.357 177.976 206.031 177.543 206.215C177.11 206.398 174.036 211.948 170.712 218.548C167.388 225.148 163.174 233.361 161.347 236.798C158.024 243.048 158.024 243.048 119.236 243.048C96.1662 243.048 80.2131 242.668 79.8681 242.11C79.5491 241.594 81.9201 236.082 85.1351 229.86C88.3511 223.638 91.4402 217.648 92.0002 216.548C92.5602 215.448 93.5742 213.485 94.2532 212.185C104.898 191.82 117.23 166.695 116.868 166.11C116.612 165.695 110.221 165.046 102.667 164.667C90.1812 164.04 88.3791 163.705 82.8511 160.984C79.5071 159.337 75.6362 156.991 74.2492 155.769C70.5022 152.468 66.5771 146.912 65.8041 143.815C65.1221 141.083 65.1221 141.083 90.4101 140.815C115.699 140.548 115.699 140.548 118.42 135.048C121.141 129.548 121.141 129.548 89.9862 128.995C71.2942 128.664 57.6301 128.003 55.8301 127.344C45.7941 123.671 40.6611 120.256 36.3461 114.378C34.7991 112.271 33.3761 109.423 33.1821 108.048C32.8301 105.548 32.8301 105.548 83.3301 105.025C111.105 104.737 133.898 104.4 133.981 104.275C135.636 101.792 138.274 96.7993 138.791 95.1713C139.465 93.0483 139.465 93.0483 89.1211 93.0483C42.3481 93.0483 24.9271 92.3123 20.5011 90.1503C14.2301 87.0873 11.3252 85.1893 7.64616 81.7543Z" fill="#FF0000"/>
<path d="M203.192 103.048C206.142 97.2733 211.268 87.2923 214.584 80.8683C219.116 72.0873 220.891 69.4803 221.736 70.3683C222.876 71.5663 225.377 76.1533 232.739 90.5483C234.989 94.9483 237.067 98.7733 237.358 99.0483C237.648 99.3233 238.76 101.573 239.83 104.048C240.9 106.523 242.025 108.773 242.33 109.048C242.635 109.323 243.76 111.573 244.83 114.048C245.9 116.523 247.012 118.773 247.302 119.048C248.131 119.834 251.33 127.008 251.33 128.082C251.33 128.654 246.026 129.048 238.33 129.048C231.18 129.048 225.328 128.71 225.325 128.298C225.322 127.886 224.28 126.249 223.01 124.661C220.699 121.773 220.699 121.773 217.974 127.161C216.475 130.124 214.887 133.223 214.445 134.048C212.282 138.083 211.33 140.067 211.33 140.542C211.33 140.828 240.692 140.947 276.58 140.805C341.83 140.548 341.83 140.548 342.126 133.798C342.385 127.868 342.659 127.048 344.376 127.048C345.451 127.048 346.334 127.386 346.338 127.798C346.342 128.21 347.355 129.024 348.588 129.607C352.251 131.336 362.79 137.299 363.33 137.948C363.605 138.278 364.73 139.039 365.83 139.639C379.817 147.271 388.873 152.9 388.15 153.512C387.233 154.29 371.108 164.048 370.74 164.048C370.502 164.048 366.718 166.298 362.33 169.048C357.942 171.798 354.098 174.048 353.788 174.048C353.478 174.048 351.568 175.173 349.545 176.548C347.521 177.923 345.07 179.048 344.098 179.048C342.657 179.048 342.327 178.168 342.316 174.298C342.309 171.685 342.032 168.538 341.701 167.304C341.1 165.059 341.1 165.059 256.965 164.804C172.83 164.548 172.83 164.548 173.171 162.135C173.358 160.807 174.496 158.107 175.699 156.135C176.902 154.162 178.774 150.748 179.858 148.548C180.943 146.348 182.167 144.398 182.58 144.215C182.993 144.031 183.33 143.442 183.33 142.904C183.33 141.908 191.419 124.959 192.33 124.047C193.441 122.934 196.33 116.798 196.33 115.55C196.33 114.816 196.667 114.065 197.08 113.881C197.493 113.698 200.243 108.823 203.192 103.048Z" fill="#FF0000"/>
<path d="M261.222 198.096C254.04 183.921 251.701 178.427 252.598 177.844C253.276 177.405 259.163 177.158 265.682 177.297C277.533 177.548 277.533 177.548 281.89 186.048C284.286 190.723 286.715 195.092 287.288 195.756C287.861 196.42 288.33 197.366 288.33 197.857C288.33 198.348 289.499 200.955 290.928 203.649C294.382 210.162 295.828 212.998 297.377 216.298C298.668 219.048 298.668 219.048 311.468 219.048C325.627 219.048 325.149 219.366 321.247 212.548C315.792 203.016 304.313 178.884 304.834 178.042C305.541 176.897 328.273 176.69 329.883 177.813C330.749 178.418 334.427 185.21 340.128 196.731C340.623 197.73 341.759 199.898 342.653 201.548C343.547 203.198 347.553 211.073 351.554 219.048C355.556 227.023 359.055 233.773 359.33 234.048C360.561 235.279 363.14 241.905 362.599 242.446C362.268 242.777 344.508 243.048 323.132 243.048C287.031 243.048 284.221 242.924 283.622 241.298C283.266 240.336 282.718 239.323 282.403 239.047C281.308 238.09 278.33 231.878 278.33 230.55C278.33 229.816 277.988 229.065 277.571 228.881C276.707 228.502 274.946 225.185 261.222 198.096Z" fill="#FF0000"/>
<path d="M197.33 11.5833C199.805 6.65227 202.28 2.05627 202.83 1.37127C204.259 -0.410735 237.667 -0.477733 239.08 1.29827C240.237 2.75127 249.014 19.3263 257.746 36.5483C261.092 43.1483 264.074 48.7733 264.372 49.0483C264.67 49.3233 267.59 54.9483 270.86 61.5483C274.131 68.1483 277.149 73.6983 277.568 73.8813C277.987 74.0653 278.33 74.8163 278.33 75.5503C278.33 76.8283 281.256 83.0023 282.358 84.0473C282.648 84.3233 283.76 86.5733 284.83 89.0483C285.9 91.5233 287.012 93.7733 287.302 94.0493C288.404 95.0943 291.33 101.268 291.33 102.546C291.33 103.28 291.667 104.031 292.08 104.215C292.493 104.398 294.315 107.473 296.131 111.048C297.946 114.623 299.795 118.223 300.239 119.048C303.251 124.647 304.33 126.994 304.33 127.952C304.33 129.594 278.873 129.447 277.642 127.798C277.129 127.111 275.849 124.523 274.797 122.048C273.746 119.573 272.648 117.323 272.358 117.048C272.067 116.773 270.491 113.848 268.855 110.548C267.219 107.248 264.857 102.869 263.605 100.818C262.354 98.7663 261.33 96.6203 261.33 96.0483C261.33 95.4763 260.205 93.2263 258.83 91.0483C257.455 88.8703 256.33 86.4413 256.33 85.6513C256.33 84.8613 255.97 84.0653 255.53 83.8813C255.09 83.6983 252.058 78.1483 248.791 71.5483C245.523 64.9483 242.608 59.3233 242.313 59.0483C242.017 58.7733 240.9 56.5233 239.83 54.0483C238.76 51.5733 237.648 49.3233 237.358 49.0483C237.067 48.7733 234.122 43.1483 230.812 36.5483C224.909 24.7753 224.731 24.5483 221.421 24.5483C219.084 24.5483 217.707 25.1623 216.939 26.5483C216.329 27.6483 215.583 28.7733 215.282 29.0483C214.98 29.3233 212.055 34.9483 208.782 41.5483C205.508 48.1483 201.974 54.3353 200.927 55.2983C198.855 57.2033 192.55 57.5633 181.493 56.4073C175.495 55.7803 175.376 55.7103 176.006 53.1573C176.36 51.7223 177.609 48.9733 178.782 47.0483C179.954 45.1233 183.37 38.5983 186.372 32.5483C189.374 26.4983 192.055 21.3233 192.33 21.0483C192.605 20.7733 194.855 16.5143 197.33 11.5833Z" fill="#FF0000"/>
<path d="M7.64616 81.7543C3.74716 78.1123 0.330147 72.6923 0.330147 70.1473C0.330147 69.3563 27.4862 69.0483 97.2362 69.0483C194.143 69.0483 194.143 69.0483 193.574 71.2983C193.261 72.5363 192.736 73.7733 192.408 74.0483C192.079 74.3233 189.203 79.7233 186.017 86.0483C182.83 92.3733 179.867 98.2233 179.432 99.0483C178.997 99.8733 178.2 101.448 177.662 102.548C177.123 103.648 175.928 106.011 175.006 107.798C174.084 109.585 172.576 112.511 171.654 114.298C170.732 116.085 169.675 118.223 169.305 119.048C168.935 119.873 167.858 121.898 166.911 123.548C165.964 125.198 164.673 127.786 164.041 129.298C163.409 130.81 162.54 132.048 162.111 132.048C161.681 132.048 161.33 132.687 161.33 133.467C161.33 134.778 158.477 140.899 157.33 142.047C157.055 142.323 153.072 149.973 148.478 159.048C143.884 168.123 139.722 175.976 139.228 176.498C138.734 177.02 138.33 178.042 138.33 178.768C138.33 179.494 137.205 181.87 135.83 184.048C134.455 186.226 133.33 188.655 133.33 189.445C133.33 190.235 132.986 191.031 132.565 191.215C131.958 191.479 119.867 214.676 118.486 218.226C118.295 218.717 123.785 218.985 130.863 218.829C143.584 218.548 143.584 218.548 150.53 205.048C154.351 197.623 158.344 190.06 159.403 188.241C160.463 186.422 161.33 184.284 161.33 183.491C161.33 182.697 161.673 182.048 162.093 182.048C162.512 182.048 163.3 181.036 163.843 179.798C164.768 177.689 165.518 177.53 175.83 177.257C181.88 177.097 187.832 177.216 189.057 177.521C191.261 178.069 191.266 178.115 189.557 181.811C188.607 183.867 187.605 185.773 187.33 186.048C186.293 187.085 178.33 203.602 178.33 204.716C178.33 205.357 177.976 206.031 177.543 206.215C177.11 206.398 174.036 211.948 170.712 218.548C167.388 225.148 163.174 233.361 161.347 236.798C158.024 243.048 158.024 243.048 119.236 243.048C96.1662 243.048 80.2131 242.668 79.8681 242.11C79.5491 241.594 81.9201 236.082 85.1351 229.86C88.3511 223.638 91.4402 217.648 92.0002 216.548C92.5602 215.448 93.5742 213.485 94.2532 212.185C104.898 191.82 117.23 166.695 116.868 166.11C116.612 165.695 110.221 165.046 102.667 164.667C90.1812 164.04 88.3791 163.705 82.8511 160.984C79.5071 159.337 75.6362 156.991 74.2492 155.769C70.5022 152.468 66.5771 146.912 65.8041 143.815C65.1221 141.083 65.1221 141.083 90.4101 140.815C115.699 140.548 115.699 140.548 118.42 135.048C121.141 129.548 121.141 129.548 89.9862 128.995C71.2942 128.664 57.6301 128.003 55.8301 127.344C45.7941 123.671 40.6611 120.256 36.3461 114.378C34.7991 112.271 33.3761 109.423 33.1821 108.048C32.8301 105.548 32.8301 105.548 83.3301 105.025C111.105 104.737 133.898 104.4 133.981 104.275C135.636 101.792 138.274 96.7993 138.791 95.1713C139.465 93.0483 139.465 93.0483 89.1211 93.0483C42.3481 93.0483 24.9271 92.3123 20.5011 90.1503C14.2301 87.0873 11.3252 85.1893 7.64616 81.7543Z" fill="#FF0000"/>
<path d="M203.192 103.048C206.142 97.2733 211.268 87.2923 214.584 80.8683C219.116 72.0873 220.891 69.4803 221.736 70.3683C222.876 71.5663 225.377 76.1533 232.739 90.5483C234.989 94.9483 237.067 98.7733 237.358 99.0483C237.648 99.3233 238.76 101.573 239.83 104.048C240.9 106.523 242.025 108.773 242.33 109.048C242.635 109.323 243.76 111.573 244.83 114.048C245.9 116.523 247.012 118.773 247.302 119.048C248.131 119.834 251.33 127.008 251.33 128.082C251.33 128.654 246.026 129.048 238.33 129.048C231.18 129.048 225.328 128.71 225.325 128.298C225.322 127.886 224.28 126.249 223.01 124.661C220.699 121.773 220.699 121.773 217.974 127.161C216.475 130.124 214.887 133.223 214.445 134.048C212.282 138.083 211.33 140.067 211.33 140.542C211.33 140.828 240.692 140.947 276.58 140.805C341.83 140.548 341.83 140.548 342.126 133.798C342.385 127.868 342.659 127.048 344.376 127.048C345.451 127.048 346.334 127.386 346.338 127.798C346.342 128.21 347.355 129.024 348.588 129.607C352.251 131.336 362.79 137.299 363.33 137.948C363.605 138.278 364.73 139.039 365.83 139.639C379.817 147.271 388.873 152.9 388.15 153.512C387.233 154.29 371.108 164.048 370.74 164.048C370.502 164.048 366.718 166.298 362.33 169.048C357.942 171.798 354.098 174.048 353.788 174.048C353.478 174.048 351.568 175.173 349.545 176.548C347.521 177.923 345.07 179.048 344.098 179.048C342.657 179.048 342.327 178.168 342.316 174.298C342.309 171.685 342.032 168.538 341.701 167.304C341.1 165.059 341.1 165.059 256.965 164.804C172.83 164.548 172.83 164.548 173.171 162.135C173.358 160.807 174.496 158.107 175.699 156.135C176.902 154.162 178.774 150.748 179.858 148.548C180.943 146.348 182.167 144.398 182.58 144.215C182.993 144.031 183.33 143.442 183.33 142.904C183.33 141.908 191.419 124.959 192.33 124.047C193.441 122.934 196.33 116.798 196.33 115.55C196.33 114.816 196.667 114.065 197.08 113.881C197.493 113.698 200.243 108.823 203.192 103.048Z" fill="#FF0000"/>
<path d="M261.222 198.096C254.04 183.921 251.701 178.427 252.598 177.844C253.276 177.405 259.163 177.158 265.682 177.297C277.533 177.548 277.533 177.548 281.89 186.048C284.286 190.723 286.715 195.092 287.288 195.756C287.861 196.42 288.33 197.366 288.33 197.857C288.33 198.348 289.499 200.955 290.928 203.649C294.382 210.162 295.828 212.998 297.377 216.298C298.668 219.048 298.668 219.048 311.468 219.048C325.627 219.048 325.149 219.366 321.247 212.548C315.792 203.016 304.313 178.884 304.834 178.042C305.541 176.897 328.273 176.69 329.883 177.813C330.749 178.418 334.427 185.21 340.128 196.731C340.623 197.73 341.759 199.898 342.653 201.548C343.547 203.198 347.553 211.073 351.554 219.048C355.556 227.023 359.055 233.773 359.33 234.048C360.561 235.279 363.14 241.905 362.599 242.446C362.268 242.777 344.508 243.048 323.132 243.048C287.031 243.048 284.221 242.924 283.622 241.298C283.266 240.336 282.718 239.323 282.403 239.047C281.308 238.09 278.33 231.878 278.33 230.55C278.33 229.816 277.988 229.065 277.571 228.881C276.707 228.502 274.946 225.185 261.222 198.096Z" fill="#FF0000"/>
</svg>
